<svg width="32" height="21" viewBox="0 0 32 21" fill="none" xmlns="http://www.w3.org/2000/svg">
<path d="M3.84737 20.3936C4.67719 20.7979 5.61263 21 6.65369 21C6.80456 21 6.93281 20.9401 7.03842 20.8203C7.15912 20.7155 7.21948 20.5882 7.21948 20.4385V18.5294C7.21948 18.3797 7.15912 18.2524 7.03842 18.1476C6.93281 18.0428 6.81211 17.9829 6.67632 17.9679C6.05772 17.938 5.53719 17.7508 5.11474 17.4064C4.70737 17.062 4.38298 16.5754 4.14158 15.9465C3.91526 15.3027 3.7493 14.5241 3.64369 13.6107C3.53807 12.6973 3.48526 11.6567 3.48526 10.4888C3.48526 9.32086 3.53807 8.28021 3.64369 7.36684C3.7493 6.45348 3.91526 5.68235 4.14158 5.05348C4.38298 4.4246 4.70737 3.93797 5.11474 3.59358C5.53719 3.2492 6.05772 3.06203 6.67632 3.03208C6.81211 3.01711 6.93281 2.95722 7.03842 2.85241C7.15912 2.74759 7.21948 2.62032 7.21948 2.47059V0.561497C7.21948 0.411764 7.15912 0.284492 7.03842 0.17968C6.93281 0.059893 6.80456 0 6.65369 0C5.61263 0 4.67719 0.194652 3.84737 0.583957C3.03263 0.973262 2.3386 1.58717 1.76526 2.42567C1.19193 3.26417 0.754386 4.34973 0.452632 5.68235C0.150877 7.01497 0 8.61711 0 10.4888C0 12.3604 0.150877 13.9626 0.452632 15.2952C0.754386 16.6278 1.19193 17.7134 1.76526 18.5519C2.3386 19.3904 3.03263 20.0043 3.84737 20.3936Z" fill="black"/>
<path d="M24.9389 20.8203C25.0596 20.9401 25.1954 21 25.3463 21C26.3874 21 27.3153 20.7979 28.13 20.3936C28.9598 20.0043 29.6614 19.3904 30.2347 18.5519C30.8081 17.7134 31.2456 16.6278 31.5474 15.2952C31.8491 13.9626 32 12.3604 32 10.4888C32 8.61711 31.8491 7.01497 31.5474 5.68235C31.2456 4.34973 30.8081 3.26417 30.2347 2.42567C29.6614 1.58717 28.9598 0.973262 28.13 0.583957C27.3153 0.194652 26.3874 0 25.3463 0C25.1954 0 25.0596 0.059893 24.9389 0.17968C24.8333 0.284492 24.7805 0.411764 24.7805 0.561497V2.47059C24.7805 2.62032 24.8333 2.74759 24.9389 2.85241C25.0596 2.95722 25.1879 3.01711 25.3237 3.03208C25.9574 3.06203 26.4779 3.2492 26.8853 3.59358C27.2926 3.93797 27.6095 4.4246 27.8358 5.05348C28.0772 5.68235 28.2507 6.45348 28.3563 7.36684C28.4619 8.28021 28.5147 9.32086 28.5147 10.4888C28.5147 11.6567 28.4619 12.6973 28.3563 13.6107C28.2507 14.5241 28.0772 15.3027 27.8358 15.9465C27.6095 16.5754 27.2926 17.062 26.8853 17.4064C26.4779 17.7508 25.9574 17.938 25.3237 17.9679C25.1879 17.9829 25.0596 18.0428 24.9389 18.1476C24.8333 18.2524 24.7805 18.3797 24.7805 18.5294V20.4385C24.7805 20.5882 24.8333 20.7155 24.9389 20.8203Z" fill="black"/>
<circle cx="15.5" cy="10.5" r="3.5" fill="black"/>
</svg>
